<?xml version="1.0" standalone="no"?>
<!DOCTYPE svg PUBLIC "-//W3C//DTD SVG 20010904//EN"
 "http://www.w3.org/TR/2001/REC-SVG-20010904/DTD/svg10.dtd">
<svg version="1.0" xmlns="http://www.w3.org/2000/svg"
 width="2048.000000pt" height="156.000000pt" viewBox="0 0 2048.000000 156.000000"
 preserveAspectRatio="xMidYMid meet">

<g transform="translate(0.000000,156.000000) scale(0.100000,-0.100000)"
fill="#000000" stroke="none">
<path d="M0 780 l0 -782 363 6 c199 3 379 8 400 12 l37 6 0 249 0 249 120 0
120 0 2 -257 3 -258 2140 0 c1667 0 2146 3 2168 12 l27 13 0 115 0 115 185 0
185 0 0 -130 0 -130 525 0 c338 0 542 4 575 11 l50 11 0 249 0 249 80 0 80 0
0 -130 0 -130 130 0 130 0 0 -130 0 -130 788 0 c615 0 792 3 805 13 15 11 17
41 19 257 l3 245 250 5 250 5 3 128 3 127 243 0 c133 0 245 -2 247 -4 2 -2 3
-59 1 -125 l-3 -121 -118 0 c-88 0 -121 -4 -130 -14 -8 -9 -11 -87 -9 -262 l3
-249 653 -3 652 -2 0 130 0 130 130 0 130 0 0 260 0 260 -130 0 -130 0 0 125
0 124 128 3 127 3 3 263 2 262 -650 0 -649 0 -3 -127 -3 -128 -117 -3 -118 -3
0 111 c0 61 -5 120 -10 131 -10 19 -34 19 -1190 19 l-1180 0 0 -260 0 -260
-80 0 -80 0 0 113 c0 61 -4 118 -9 126 -7 11 -40 16 -130 19 l-121 4 0 118 0
118 -50 11 c-29 6 -162 11 -310 11 l-259 0 -3 -127 -3 -128 -67 -3 -68 -3 0
120 0 120 -37 8 c-21 4 -285 8 -588 8 l-550 0 -3 -127 -3 -127 -127 -3 -127
-3 -3 -382 -2 -383 -425 0 -425 0 0 504 0 505 -47 8 c-27 4 -658 8 -1403 8
l-1355 0 -3 -127 -3 -128 -119 0 -120 0 0 119 0 119 -37 6 c-21 4 -201 9 -400
12 l-363 6 0 -782z m472 563 l3 -128 127 -3 127 -3 3 -127 3 -127 88 -3 87 -3
0 131 0 130 130 0 130 0 0 130 0 130 175 0 175 0 -2 -687 -3 -688 -170 0 -170
0 -3 388 -2 388 -88 -3 -87 -3 -3 -127 -3 -128 -169 0 -170 0 0 130 0 131 -87
-3 -88 -3 -3 -388 -2 -387 -168 2 -167 3 -3 688 -2 687 170 0 169 0 3 -127z
m2608 -43 l0 -170 -520 0 -520 0 0 -90 0 -90 260 0 260 0 0 -170 0 -170 -260
0 -260 0 0 -90 0 -90 520 0 520 0 -2 -167 -3 -168 -690 0 -690 0 -3 688 -2
687 695 0 695 0 0 -170z m520 -350 l0 -520 520 0 520 0 0 -170 0 -170 -690 0
-690 0 0 690 0 690 170 0 170 0 0 -520z m2342 393 l3 -128 128 -3 127 -3 0
-560 0 -559 -167 2 -168 3 -3 127 -3 128 -349 0 -350 0 0 -130 0 -130 -170 0
-170 0 0 560 0 559 128 3 127 3 3 128 3 127 429 0 429 0 3 -127z m780 0 l3
-128 127 -3 127 -3 3 -127 3 -127 128 -3 127 -3 0 -129 0 -130 90 0 90 0 0
390 0 390 170 0 170 0 0 -690 0 -690 -167 2 -168 3 -3 128 -3 127 -129 0 -130
0 0 130 0 130 -130 0 -130 0 0 130 0 131 -87 -3 -88 -3 -3 -388 -2 -387 -168
2 -167 3 -3 688 -2 687 170 0 169 0 3 -127z m2088 -43 l0 -170 -130 0 -130 0
0 -350 0 -350 130 0 130 0 -2 -168 -3 -167 -430 0 -430 0 -3 167 -2 168 130 0
130 0 0 350 0 350 -130 0 -130 0 0 170 0 170 435 0 435 0 0 -170z m780 -130
l0 -300 -130 0 -130 0 0 -130 0 -130 -170 0 -170 0 0 170 0 169 128 3 127 3 0
85 0 85 -127 3 -128 3 0 169 0 170 300 0 300 0 0 -300z m1560 130 l0 -170
-520 0 -520 0 0 -90 0 -90 390 0 390 0 0 -130 0 -130 130 0 130 0 0 -170 0
-170 -130 0 -129 0 -3 -127 -3 -128 -557 -3 -558 -2 0 170 0 170 520 0 520 0
0 90 0 90 -390 0 -389 0 -3 128 -3 127 -127 3 -128 3 0 169 0 169 128 3 127 3
3 128 3 127 559 0 560 0 0 -170z m-8020 -520 l0 -250 -145 0 -145 0 0 250 0
250 145 0 145 0 0 -250z m4978 80 c2 -91 0 -202 -3 -248 l-7 -83 -91 3 -92 3
1 33 c0 17 1 129 2 247 l2 216 93 -3 92 -3 3 -165z m782 -80 l0 -250 -105 0
-105 0 0 250 0 250 105 0 105 0 0 -250z"/>
<path d="M5167 1123 c-4 -3 -7 -102 -7 -220 l0 -213 350 0 350 0 0 220 0 220
-343 0 c-189 0 -347 -3 -350 -7z m583 -218 l0 -125 -185 0 -185 0 0 125 0 125
185 0 185 0 0 -125z"/>
<path d="M11572 1548 c-17 -17 -17 -1519 0 -1536 9 -9 258 -12 1060 -12 l1048
0 0 260 0 260 210 0 210 0 0 -245 c0 -243 0 -244 23 -257 17 -10 147 -14 575
-16 l552 -3 0 261 0 260 390 0 389 0 3 128 3 127 130 5 130 5 3 123 3 122 44
0 45 0 0 -250 0 -249 -127 -3 -128 -3 -3 -248 -2 -247 27 -13 c21 -9 229 -13
865 -15 l838 -3 2 258 3 258 153 3 152 3 0 -250 0 -249 33 -7 c17 -4 537 -10
1155 -12 l1122 -4 0 259 0 259 -167 6 c-91 4 -208 7 -260 7 l-93 0 0 250 0
250 88 0 c48 0 165 3 260 7 l172 6 0 259 0 259 -867 -4 c-478 -3 -883 -8 -900
-12 l-33 -7 0 -119 c0 -99 -3 -119 -15 -119 -13 0 -15 21 -15 130 l0 131
-1232 -3 c-947 -2 -1239 -6 -1260 -15 l-28 -13 0 -115 0 -115 -45 0 -44 0 -3
128 -3 127 -935 0 c-514 0 -947 -3 -962 -8 l-27 -7 -3 -118 -3 -117 -212 -3
-213 -2 0 130 0 130 -1048 0 c-802 0 -1051 -3 -1060 -12z m1488 -248 l0 -170
-520 0 -520 0 0 -90 0 -90 260 0 260 0 0 -170 0 -170 -260 0 -260 0 0 -90 0
-90 520 0 520 0 -2 -167 -3 -168 -687 -3 -688 -2 0 690 0 690 690 0 690 0 0
-170z m522 43 l3 -128 127 -3 127 -3 3 -127 3 -127 85 0 85 0 3 127 3 127 127
3 127 3 3 128 3 127 169 0 170 0 0 -690 0 -690 -170 0 -170 0 -2 387 -3 388
-85 0 -85 0 -3 -127 -3 -128 -169 0 -169 0 -3 128 -3 127 -85 0 -85 0 -3 -388
-2 -387 -170 0 -170 0 0 690 0 690 170 0 169 0 3 -127z m2340 0 l3 -128 128
-3 127 -3 0 -169 0 -169 -127 -3 -128 -3 -3 -127 -3 -128 -389 0 -390 0 0
-260 0 -260 -167 2 -168 3 -3 688 -2 687 560 0 559 0 3 -127z m1308 -43 l0
-170 -130 0 -130 0 0 -350 0 -350 130 0 130 0 -2 -168 -3 -167 -430 0 -430 0
-3 167 -2 168 130 0 130 0 0 350 0 350 -130 0 -130 0 0 170 0 170 435 0 435 0
0 -170z m1300 40 l0 -130 130 0 130 0 0 -170 0 -170 -130 0 -130 0 0 -90 0
-90 130 0 130 0 -2 -297 -3 -298 -167 -3 -168 -2 0 260 0 260 -350 0 -350 0
-2 -258 -3 -257 -170 0 -170 0 -3 688 -2 687 565 0 565 0 0 -130z m1820 -40
l0 -170 -520 0 -520 0 0 -90 0 -90 260 0 260 0 0 -170 0 -170 -260 0 -260 0 0
-90 0 -90 520 0 520 0 0 -170 0 -170 -690 0 -690 0 0 690 0 690 690 0 690 0 0
-170z m-7266 -287 c-1 -7 -2 -119 -2 -248 l-2 -235 -220 0 -220 0 0 250 0 250
223 -2 c170 -2 222 -6 221 -15z m4066 -233 l0 -250 -35 0 -35 0 0 250 0 250
35 0 35 0 0 -250z"/>
<path d="M15144 1117 c-3 -8 -4 -47 -2 -88 l3 -74 348 -3 347 -2 0 90 0 90
-345 0 c-280 0 -347 -3 -351 -13z"/>
<path d="M17750 1040 l0 -90 348 2 347 3 0 85 0 85 -347 3 -348 2 0 -90z"/>
</g>
</svg>
